# xmcd
#
# Track frame offsets:
#	150
#	15075
#	26275
#	37605
#	51550
#	66025
#	82162
#	96552
#	111267
#	128485
#	144195
#	160030
#	180172
#	194480
#	210600
#	230830
#
# Disc length: 3291 seconds
#
# Revision: 0
# Processed by: cddbd v1.5.1PL0 Copyright (c) Steve Scherf et al.
# Submitted via: dBpowerAMP V4.0
#
DISCID=ca0cd910
DTITLE=Various Artist - 鄭秀文最好混音精選
DYEAR=1998
DGENRE=
TTITLE0=Feel So Good 政治不正確版 - 鄭秀文
TTITLE1=女人本色 Revolution Mix - 
TTITLE2=星秀傳說 Everyone Is A Superstar Star Mix - 
TTITLE3=表演時間  N. Y. Mix - 
TTITLE4=X 派對 海市蜃樓版 - 
TTITLE5=男仕今天你很好 男仕製造 Hard Mix - 
TTITLE6=小心女人 頭號通輯版 - 
TTITLE7=親密關係 Season's Mix - 
TTITLE8=我們的主題曲 生活愉快版 - 
TTITLE9=默契 M.C. Mix - 
TTITLE10=放不低 Bozza Mix - 
TTITLE11=捨不得你 Unplugged Version - 
TTITLE12=秋冬愛的故事 Remix - 
TTITLE13=男仕今天你很好 女仕製造 Soft Mix - 
TTITLE14=小心女人 C.Y. 號外 Mix - 
TTITLE15=默契 N.Y. Mix - 
EXTD=
EXTT0=
EXTT1=
EXTT2=
EXTT3=
EXTT4=
EXTT5=
EXTT6=
EXTT7=
EXTT8=
EXTT9=
EXTT10=
EXTT11=
EXTT12=
EXTT13=
EXTT14=
EXTT15=
PLAYORDER=
